<svg width="47" height="48" viewBox="0 0 47 48" fill="none" xmlns="http://www.w3.org/2000/svg">
<path fill-rule="evenodd" clip-rule="evenodd" d="M28.4346 2L28.6179 2.19943C28.7921 2.3898 28.8013 2.53484 28.8471 13.5216H37.676C46.4041 13.5126 46.4958 13.5216 47 13.8842L46.945 22.2512C46.89 29.7752 46.8716 30.6273 46.7341 30.7723C46.6058 30.9083 46.4316 30.9355 44.4329 30.9264V33.8091C44.4329 36.4017 44.4146 36.7009 44.2679 36.8459C44.1854 36.9365 44.0479 37 43.9745 37C43.9012 37 42.0034 35.6312 35.6774 30.9355L27.6094 30.9264C23.1721 30.9264 19.4956 30.8902 19.4406 30.8539C19.3856 30.8177 19.2939 30.6998 19.2298 30.591C19.1564 30.4369 19.1289 28.8324 19.1289 19.2326L12.2987 19.2235L8.26469 22.224C6.046 23.8648 4.1482 25.2155 4.04735 25.2155C3.9465 25.2155 3.79064 25.152 3.70813 25.0614C3.57061 24.9163 3.5431 24.5991 3.49726 19.1873L2.39709 19.1601C1.43444 19.1419 1.27858 19.1147 1.13189 18.9606C0.985199 18.7884 0.976031 18.308 1.03104 10.5483C1.08605 2.44419 1.08605 2.32634 1.26941 2.16317C1.44361 2.01813 2.23206 2.00907 28.4346 2V2ZM2.07621 18.1448C3.87316 18.1448 4.19404 18.181 4.3499 18.2808C4.5516 18.4167 4.5516 18.4167 4.5516 21.0456V23.6744L12.0236 18.1357L27.7469 18.1448V3.09687H2.07621V18.1448ZM28.8471 18.7793L28.3979 19.2326H20.2291V29.8386C32.2027 29.8386 35.7599 29.8568 35.8607 29.884C35.9616 29.9112 37.6944 31.1531 39.7113 32.6397L43.3786 35.3592C43.4611 30.7633 43.4978 30.0925 43.5895 30.0018C43.672 29.9202 44.057 29.8749 44.7996 29.8568L45.8998 29.8386V14.6094H28.8471V18.7793ZM15.9659 5.00958C16.1676 5.00052 16.516 5.05491 16.7452 5.13649C16.9744 5.20901 17.3136 5.42657 17.5153 5.60787C17.7079 5.79824 17.9462 6.11551 18.0379 6.31494C18.1296 6.51437 18.2121 6.78632 18.2121 7.17612H19.0647C19.734 7.17612 19.9449 7.21238 20.0732 7.33929C20.2107 7.47527 20.2383 7.65657 20.2291 8.74437C20.2291 9.72339 20.2016 10.0135 20.0916 10.1222C20.0182 10.1948 19.7798 10.2854 19.5598 10.3217C19.2939 10.3579 19.0831 10.4667 18.8722 10.6843C18.6247 10.9381 18.5788 11.0469 18.5788 11.4367C18.5788 11.8174 18.6247 11.9352 18.8814 12.2163C19.1014 12.452 19.2756 12.5517 19.5781 12.597C19.8257 12.6333 20.0274 12.733 20.1007 12.8418C20.1924 12.9687 20.2291 13.3494 20.2291 14.2015C20.2291 15.0808 20.2016 15.4253 20.1007 15.5613C19.9724 15.7335 19.844 15.7426 16.1309 15.7697C12.3903 15.7969 12.2895 15.7969 12.042 15.6156C11.8036 15.4343 11.7944 15.3981 11.7944 13.6123H11.5652C11.4369 13.6123 11.1802 13.5488 10.9876 13.4672C10.8043 13.3947 10.5109 13.2044 10.3459 13.0412C10.1717 12.878 9.96079 12.6061 9.86911 12.4338C9.77743 12.2616 9.67658 11.9534 9.63991 11.7539C9.6124 11.5545 9.63074 11.21 9.68575 10.9834C9.74076 10.7568 9.88744 10.4214 10.0158 10.2401C10.135 10.0497 10.4284 9.77778 10.6667 9.62367C10.9143 9.47863 11.2627 9.33359 11.7944 9.26107V8.42709C11.7944 7.8288 11.8311 7.52966 11.9319 7.38462C12.0603 7.19425 12.1428 7.17612 13.7656 7.17612L13.8847 6.70474C13.9489 6.44185 14.1048 6.08832 14.224 5.93421C14.3523 5.77104 14.5907 5.53535 14.7465 5.41751C14.9116 5.29966 15.1683 5.16369 15.3241 5.1093C15.48 5.05491 15.7642 5.00958 15.9659 5.00958ZM14.9391 6.79539C14.8657 6.96763 14.8382 7.23958 14.8749 7.47527C14.9116 7.77441 14.8932 7.89226 14.7557 8.0101C14.6274 8.12795 14.3798 8.17327 13.7197 8.1914L12.8487 8.2186C12.8029 9.95001 12.7662 10.1404 12.6379 10.2401C12.5554 10.3035 12.2437 10.3489 11.9503 10.3489C11.6019 10.3489 11.3482 10.4033 11.1893 10.512C11.0518 10.5936 10.8868 10.7749 10.8226 10.92C10.7492 11.0559 10.6942 11.3279 10.6942 11.5273C10.6942 11.8174 10.7584 11.9624 11.006 12.2344C11.3085 12.5517 11.3452 12.5698 11.9136 12.5698C12.3048 12.5698 12.5523 12.6151 12.6562 12.7058C12.7846 12.8146 12.8121 13.0049 12.8029 13.7754V14.7001H19.1289L19.1197 13.567C18.3955 13.2406 18.1112 13.0231 17.9554 12.8236C17.8179 12.6333 17.662 12.3432 17.5978 12.1619C17.5337 11.9896 17.4878 11.6633 17.4878 11.4367C17.4786 11.1919 17.5703 10.8474 17.6895 10.5755C17.8087 10.3307 18.0471 9.99534 18.2213 9.8503C18.3955 9.69619 18.6705 9.51489 18.8355 9.44237C19.1289 9.3064 19.1381 9.29733 19.1289 8.74437V8.17327C17.5428 8.17327 17.3595 8.14608 17.2403 8.01917C17.1211 7.89226 17.1028 7.75628 17.1486 7.47527C17.1853 7.23051 17.1578 6.97669 17.0844 6.79539C17.0111 6.63222 16.8369 6.40559 16.6902 6.28775C16.4977 6.14271 16.3051 6.07925 16.0026 6.08832C15.7092 6.08832 15.5075 6.15177 15.3241 6.29681C15.1775 6.40559 15.0124 6.63222 14.9391 6.79539ZM34.1646 16.8757C34.5497 16.8757 34.7881 16.9301 35.164 17.1204C35.4482 17.2745 35.7599 17.5193 35.9157 17.7369C36.0624 17.9363 36.2366 18.317 36.4108 19.0513H37.3551C38.1986 19.0513 38.2995 19.0694 38.382 19.2326C38.437 19.3414 38.4736 20.8643 38.4736 23.2212C38.4736 26.5662 38.4553 27.0466 38.327 27.1645C38.2169 27.2732 37.9144 27.3004 36.8876 27.3004C35.9341 27.3095 35.5582 27.2732 35.4848 27.1917C35.4207 27.1282 35.3473 26.9288 35.3106 26.7565C35.274 26.5843 35.1823 26.3305 35.1181 26.1945C35.0448 26.0495 34.8614 25.8772 34.7147 25.8047C34.568 25.7322 34.3113 25.6687 34.1646 25.6687C34.0179 25.6687 33.7612 25.7322 33.6145 25.8047C33.4679 25.8772 33.257 26.0767 33.1561 26.2398C33.0553 26.3939 32.9728 26.6296 32.9728 26.7565C32.9728 26.8834 32.8994 27.0557 32.8077 27.1463C32.6702 27.2823 32.4777 27.3095 31.3684 27.3095C30.2773 27.3095 30.0665 27.2823 29.9473 27.1554C29.8464 27.0466 29.8006 26.7475 29.7914 26.1492C29.7639 25.3152 29.7639 25.3061 29.5347 25.3061C29.4064 25.3061 29.1497 25.2427 28.9663 25.1611C28.7738 25.0886 28.4804 24.8982 28.3062 24.735C28.1412 24.5719 27.9211 24.2818 27.8295 24.0824C27.7286 23.8648 27.6553 23.5113 27.6553 23.2031C27.6553 22.913 27.7194 22.5232 27.802 22.3419C27.8753 22.1515 28.0678 21.8614 28.2329 21.6983C28.3979 21.526 28.6729 21.3175 28.8471 21.2269C29.0213 21.1362 29.3055 21.0456 29.7639 20.9549V20.2569C29.7639 19.8671 29.8189 19.4501 29.8831 19.3232C29.9931 19.1057 30.0481 19.0966 31.9093 19.006L31.9826 18.6706C32.0193 18.4802 32.1385 18.1629 32.2393 17.9635C32.3402 17.7641 32.5694 17.4921 32.7436 17.3561C32.9178 17.2111 33.202 17.057 33.367 16.9935C33.5229 16.9391 33.8896 16.8847 34.1646 16.8757ZM33.1286 18.5074C33.0094 18.7431 32.9728 18.9425 33.0094 19.2598C33.0553 19.6042 33.0278 19.7221 32.8811 19.8671C32.7252 20.0212 32.5785 20.0484 31.7809 20.0484H30.8641C30.8733 21.5714 30.8366 21.7527 30.7083 21.8796C30.5891 21.9974 30.3874 22.0427 29.9565 22.0427C29.4247 22.0427 29.3514 22.0699 29.0763 22.3419C28.9113 22.496 28.7463 22.7589 28.7096 22.9039C28.6638 23.0761 28.6821 23.3118 28.7646 23.5385C28.8471 23.756 29.0121 23.9736 29.2138 24.1096C29.4889 24.2909 29.6081 24.3181 30.0206 24.2727C30.424 24.2274 30.5249 24.2455 30.6807 24.3996C30.8366 24.5537 30.8641 24.6988 30.8641 25.4421V26.3033C32.0376 26.3033 32.056 26.2942 32.1018 26.0585C32.1293 25.9135 32.2852 25.6415 32.4502 25.4421C32.6152 25.2427 32.9361 24.9889 33.1653 24.8801C33.4587 24.726 33.7337 24.6716 34.1646 24.6716C34.6597 24.6716 34.8431 24.7169 35.2465 24.9435C35.5582 25.1248 35.8149 25.3605 35.9983 25.6506C36.1541 25.8863 36.2733 26.1311 36.2733 26.1945C36.2733 26.267 36.4567 26.3033 36.8692 26.3033H37.4652V20.0484C35.7415 20.0575 35.5582 20.0303 35.4298 19.8943C35.3106 19.7765 35.274 19.5952 35.2923 19.2326C35.3015 18.8972 35.2556 18.6524 35.1456 18.4893C35.0631 18.3442 34.8522 18.1538 34.6964 18.0541C34.5314 17.9544 34.293 17.8728 34.1646 17.8728C34.0363 17.8728 33.7887 17.9453 33.6145 18.036C33.4312 18.1176 33.2203 18.3261 33.1286 18.5074Z" fill="#2E2E2E"/>
</svg>
